#!OML:ASF E:\CV Data\Top Level 1\Subject 1\Session 1\player.ASF
:FULLY-SPECIFIED
:DEGREES
933
root 11.3299 16.2992 -2.89138 169.592 -73.157 -161.682
lowerback 17.3073 2.25756 1.60925
upperback 4.63882 3.02016 1.84726
thorax -4.7354 1.33091 0.422983
lowerneck -14.8153 18.6592 -1.59765
upperneck 13.1579 25.4326 0.614942
head 6.06391 12.3013 2.72015
rclavicle -2.69353e-014 -1.63997e-014
rhumerus -0.385858 9.45011 -20.461
rradius 127.361
rwrist -60.0243
rhand -42.7968 -8.08668
rfingers 7.12502
rthumb -15.6627 -37.4727
lclavicle -2.69353e-014 -1.63997e-014
lhumerus 80.9762 -62.2846 43.3599
lradius 70.664
lwrist 15.9861
lhand -32.9432 17.3262
lfingers 7.12502
lthumb -6.15937 47.2166
rfemur -35.5796 4.73937 19.626
rtibia 55.571
rfoot -26.7463 1.38798
rtoes -3.90966
lfemur -27.6644 3.68474 2.24263
ltibia 44.7543
lfoot -16.0621 6.90369
ltoes -18.626
934
root 11.3348 16.2932 -2.92164 169.31 -73.0748 -161.387
lowerback 17.3263 2.23224 1.63626
upperback 4.64376 2.99161 1.8665
thorax -4.73991 1.31605 0.433556
lowerneck -14.8485 18.697 -1.67029
upperneck 13.1349 25.4901 0.6604
head 6.04554 12.3312 2.74454
rclavicle -4.02042e-014 1.26228e-014
rhumerus -0.366185 9.42358 -20.5094
rradius 127.387
rwrist -59.939
rhand -42.7934 -8.03674
rfingers 7.12502
rthumb -15.6594 -37.423
lclavicle -4.02042e-014 1.26228e-014
lhumerus 80.8897 -62.251 43.4844
lradius 70.6503
lwrist 15.9074
lhand -32.9174 17.2705
lfingers 7.12502
lthumb -6.13451 47.1616
rfemur -35.6259 4.7613 19.8695
rtibia 55.6573
rfoot -26.7604 1.43426
rtoes -3.78312
lfemur -27.6236 3.38609 2.48812
ltibia 44.807
lfoot -15.9893 7.30746
ltoes -18.5268
935
root 11.34 16.2883 -2.95082 169.073 -73.0041 -161.13
lowerback 17.344 2.20445 1.66336
upperback 4.6478 2.95982 1.88276
thorax -4.74447 1.29968 0.441645
lowerneck -14.8832 18.7323 -1.74508
upperneck 13.1042 25.5456 0.699379
head 6.02552 12.3598 2.76683
rclavicle 2.2736e-014 1.78906e-015
rhumerus -0.357292 9.3948 -20.5613
rradius 127.422
rwrist -59.8489
rhand -42.7908 -7.98158
rfingers 7.12502
rthumb -15.6569 -37.3681
lclavicle 2.2736e-014 1.78906e-015
lhumerus 80.8181 -62.223 43.5983
lradius 70.6354
lwrist 15.8332
lhand -32.9163 17.2145
lfingers 7.12502
lthumb -6.13342 47.1057
rfemur -35.6737 4.79988 20.085
rtibia 55.7304
rfoot -26.768 1.49409
rtoes -3.52945
lfemur -27.5933 3.08037 2.7087
ltibia 44.8482
lfoot -15.902 7.7259
ltoes -18.4358
936
root 11.3454 16.2847 -2.9787 168.899 -72.9465 -160.929
lowerback 17.3597 2.18289 1.69732
upperback 4.64907 2.93701 1.88299
thorax -4.74969 1.28787 0.427054
lowerneck -14.921 18.7575 -1.78349
upperneck 13.0741 25.5825 0.724164
head 6.01289 12.3793 2.78109
rclavicle -3.2551e-015 1.04362e-014
rhumerus -0.401914 9.35223 -20.6289
rradius 127.467
rwrist -59.7458
rhand -42.7901 -7.92596
rfingers 7.12502
rthumb -15.6562 -37.3125
lclavicle -3.2551e-015 1.04362e-014
lhumerus 80.8194 -62.2253 43.6413
lradius 70.6254
lwrist 15.7676
lhand -32.937 17.1542
lfingers 7.12502
lthumb -6.15343 47.0448
rfemur -35.7269 4.85065 20.2667
rtibia 55.7917
rfoot -26.7689 1.5639
rtoes -3.18054
lfemur -27.5754 2.76492 2.89804
ltibia 44.8764
lfoot -15.7992 8.15894
ltoes -18.3347
937
root 11.3511 16.2822 -3.00491 168.802 -72.9021 -160.796
lowerback 17.3754 2.16403 1.74632
upperback 4.64684 2.91954 1.85693
thorax -4.75642 1.27885 0.374995
lowerneck -14.9657 18.7721 -1.7933
upperneck 13.0427 25.5997 0.745939
head 6.00512 12.39 2.79107
rclavicle 2.00276e-014 -1.12313e-014
rhumerus -0.501833 9.29611 -20.7261
rradius 127.523
rwrist -59.6225
rhand -42.7858 -7.8727
rfingers 7.12502
rthumb -15.652 -37.2596
lclavicle 2.00276e-014 -1.12313e-014
lhumerus 80.8977 -62.2579 43.5975
lradius 70.6188
lwrist 15.7022
lhand -32.97 17.0938
lfingers 7.12502
lthumb -6.18528 46.9835
rfemur -35.7888 4.89958 20.4192
rtibia 55.8413
rfoot -26.7637 1.59726
rtoes -2.9636
lfemur -27.5701 2.44097 3.05311
ltibia 44.8901
lfoot -15.6852 8.59474
ltoes -18.1729
